<?xml version="1.0" standalone="no"?>
<!DOCTYPE svg PUBLIC "-//W3C//DTD SVG 20010904//EN"
 "http://www.w3.org/TR/2001/REC-SVG-20010904/DTD/svg10.dtd">
<svg version="1.0" xmlns="http://www.w3.org/2000/svg"
 width="148.000000pt" height="78.000000pt" viewBox="0 0 148.000000 78.000000"
 preserveAspectRatio="xMidYMid meet">
<metadata>
Created by potrace 1.10, written by Peter Selinger 2001-2011
</metadata>
<g transform="translate(0.000000,78.000000) scale(0.100000,-0.100000)"
fill="#000000" stroke="none">
<path d="M201 598 l-29 -8 -1 -199 c-2 -175 0 -199 14 -205 20 -7 218 -8 237
-1 12 5 17 59 6 70 -2 3 -38 5 -79 6 l-75 1 0 47 1 46 60 3 c84 4 107 30 66
71 -16 16 -29 18 -70 14 -56 -5 -68 6 -57 52 6 23 11 24 83 27 l76 3 1 31 c1
17 -3 35 -9 40 -12 11 -184 12 -224 2z m214 -33 c0 -18 -8 -20 -77 -23 l-78
-3 0 -58 0 -59 63 1 c60 1 62 0 62 -23 0 -24 -2 -25 -62 -24 l-63 1 0 -63 0
-63 78 -3 c71 -3 77 -5 80 -26 3 -22 2 -22 -112 -22 l-116 0 0 188 c0 104 3
192 7 196 4 3 54 5 112 4 98 -3 106 -4 106 -23z"/>
<path d="M502 597 c-6 -7 -11 -91 -12 -208 -1 -172 1 -197 15 -203 9 -3 61 -6
115 -6 89 0 100 2 110 20 6 11 8 31 4 45 -6 24 -10 25 -73 25 l-66 0 3 156 c2
87 -1 160 -5 165 -15 14 -81 19 -91 6z m78 -177 l0 -170 70 0 c68 0 70 -1 70
-25 l0 -25 -105 0 -105 0 0 195 0 195 35 0 35 0 0 -170z"/>
<path d="M782 597 c-14 -17 -15 -373 0 -399 7 -15 24 -18 112 -18 108 0 126 7
120 43 -7 44 -12 47 -76 47 l-63 0 3 156 c2 90 -1 161 -6 166 -17 17 -78 20
-90 5z m78 -177 l0 -170 70 0 c68 0 70 -1 70 -25 l0 -25 -105 0 -105 0 0 195
0 195 35 0 35 0 0 -170z"/>
<path d="M1057 591 c-13 -16 -17 -363 -5 -394 7 -16 20 -17 130 -15 132 3 131
3 118 57 -6 23 -9 24 -77 22 -77 -2 -80 0 -79 59 l1 35 61 -2 c56 -2 62 0 72
22 9 19 9 31 0 50 -10 23 -14 24 -69 18 -65 -6 -77 3 -65 52 6 24 10 25 80 25
69 0 74 1 78 23 10 53 1 57 -121 60 -87 1 -115 -1 -124 -12z m227 -17 c11 -28
-4 -34 -80 -34 l-74 0 0 -58 0 -58 58 -1 c31 -1 61 -2 65 -2 5 -1 7 -11 5 -23
-3 -21 -8 -23 -65 -23 l-63 0 0 -62 0 -62 78 -3 c71 -3 77 -5 80 -26 3 -22 2
-22 -112 -22 l-116 0 0 188 c0 104 3 192 7 195 3 4 52 7 109 7 84 0 103 -3
108 -16z"/>
</g>
</svg>
